<svg width="198" height="44" viewBox="0 0 198 44" fill="none" xmlns="http://www.w3.org/2000/svg">
<path d="M64.572 31.364C62.892 31.364 61.3707 31.168 60.008 30.776C58.664 30.384 57.4973 29.796 56.508 29.012C55.5373 28.228 54.7907 27.2573 54.268 26.1C53.7453 24.9427 53.484 23.608 53.484 22.096C53.484 20.5653 53.7547 19.212 54.296 18.036C54.856 16.8413 55.64 15.8333 56.648 15.012C57.6747 14.1907 58.888 13.5747 60.288 13.164C61.7067 12.7347 63.2747 12.52 64.992 12.52C67.0267 12.52 68.7813 12.8093 70.256 13.388C71.7307 13.948 72.888 14.7413 73.728 15.768C74.5867 16.7947 75.072 18.0173 75.184 19.436H71.6C71.3573 18.6893 70.956 18.0453 70.396 17.504C69.8547 16.944 69.136 16.5147 68.24 16.216C67.344 15.8987 66.2613 15.74 64.992 15.74C63.368 15.74 61.9773 16.0013 60.82 16.524C59.6813 17.0467 58.8133 17.784 58.216 18.736C57.6187 19.688 57.32 20.808 57.32 22.096C57.32 23.3467 57.5813 24.4293 58.104 25.344C58.6267 26.24 59.4293 26.9307 60.512 27.416C61.6133 27.9013 63.0133 28.144 64.712 28.144C66.0187 28.144 67.1667 27.976 68.156 27.64C69.164 27.2853 70.004 26.8187 70.676 26.24C71.348 25.6427 71.824 24.98 72.104 24.252L73.56 23.72C73.3173 26.128 72.4027 28.004 70.816 29.348C69.248 30.692 67.1667 31.364 64.572 31.364ZM72.608 31C72.608 30.4213 72.6453 29.7587 72.72 29.012C72.7947 28.2467 72.888 27.4813 73 26.716C73.112 25.932 73.2147 25.2133 73.308 24.56H65.02V22.18H75.828V31H72.608ZM87.4778 31.336C85.7231 31.336 84.1738 31.056 82.8298 30.496C81.5044 29.936 80.4684 29.124 79.7218 28.06C78.9751 26.9773 78.6018 25.652 78.6018 24.084C78.6018 22.516 78.9751 21.1907 79.7218 20.108C80.4684 19.0067 81.5044 18.176 82.8298 17.616C84.1738 17.056 85.7231 16.776 87.4778 16.776C89.2324 16.776 90.7631 17.056 92.0698 17.616C93.3951 18.176 94.4311 19.0067 95.1778 20.108C95.9244 21.1907 96.2978 22.516 96.2978 24.084C96.2978 25.652 95.9244 26.9773 95.1778 28.06C94.4311 29.124 93.3951 29.936 92.0698 30.496C90.7631 31.056 89.2324 31.336 87.4778 31.336ZM87.4778 28.536C88.4484 28.536 89.3164 28.368 90.0818 28.032C90.8658 27.6773 91.4818 27.1733 91.9298 26.52C92.3778 25.848 92.6018 25.036 92.6018 24.084C92.6018 23.132 92.3778 22.32 91.9298 21.648C91.4818 20.9573 90.8751 20.4347 90.1098 20.08C89.3444 19.7253 88.4671 19.548 87.4778 19.548C86.5071 19.548 85.6298 19.7253 84.8458 20.08C84.0618 20.4347 83.4364 20.948 82.9698 21.62C82.5218 22.292 82.2978 23.1133 82.2978 24.084C82.2978 25.036 82.5218 25.848 82.9698 26.52C83.4178 27.1733 84.0338 27.6773 84.8178 28.032C85.6018 28.368 86.4884 28.536 87.4778 28.536ZM103.189 23.44V27.892H117.161V31H99.4646V12.884H117.133V15.992H103.189V20.5H114.613V23.44H103.189ZM119.948 26.38H123.308C123.513 27.0147 123.933 27.5373 124.568 27.948C125.221 28.34 126.071 28.536 127.116 28.536C127.825 28.536 128.376 28.4707 128.768 28.34C129.16 28.2093 129.431 28.0227 129.58 27.78C129.729 27.5187 129.804 27.2293 129.804 26.912C129.804 26.52 129.683 26.2213 129.44 26.016C129.197 25.792 128.824 25.6147 128.32 25.484C127.816 25.3533 127.172 25.232 126.388 25.12C125.604 24.9893 124.848 24.8307 124.12 24.644C123.392 24.4573 122.748 24.2147 122.188 23.916C121.628 23.5987 121.18 23.2067 120.844 22.74C120.527 22.2547 120.368 21.6667 120.368 20.976C120.368 20.304 120.527 19.7067 120.844 19.184C121.18 18.6613 121.637 18.2227 122.216 17.868C122.813 17.5133 123.504 17.2427 124.288 17.056C125.091 16.8693 125.949 16.776 126.864 16.776C128.245 16.776 129.393 16.9813 130.308 17.392C131.223 17.784 131.904 18.344 132.352 19.072C132.819 19.7813 133.052 20.6027 133.052 21.536H129.832C129.683 20.8453 129.384 20.3507 128.936 20.052C128.488 19.7347 127.797 19.576 126.864 19.576C125.949 19.576 125.259 19.716 124.792 19.996C124.325 20.276 124.092 20.6587 124.092 21.144C124.092 21.536 124.232 21.844 124.512 22.068C124.811 22.2733 125.24 22.4413 125.8 22.572C126.379 22.7027 127.097 22.8427 127.956 22.992C128.684 23.1413 129.375 23.3093 130.028 23.496C130.7 23.6827 131.297 23.9253 131.82 24.224C132.343 24.504 132.753 24.8867 133.052 25.372C133.369 25.8387 133.528 26.436 133.528 27.164C133.528 28.06 133.267 28.816 132.744 29.432C132.24 30.048 131.512 30.524 130.56 30.86C129.608 31.1773 128.469 31.336 127.144 31.336C125.968 31.336 124.951 31.2147 124.092 30.972C123.252 30.7107 122.552 30.384 121.992 29.992C121.432 29.5813 120.993 29.152 120.676 28.704C120.377 28.2373 120.172 27.7987 120.06 27.388C119.948 26.9773 119.911 26.6413 119.948 26.38ZM135.333 17.084H146.141V19.912H135.333V17.084ZM138.917 13.276H142.557V31H138.917V13.276ZM155.038 31.308C153.657 31.308 152.397 31.0093 151.258 30.412C150.138 29.796 149.242 28.9467 148.57 27.864C147.917 26.7627 147.59 25.4933 147.59 24.056C147.59 22.5813 147.926 21.3027 148.598 20.22C149.27 19.1373 150.175 18.2973 151.314 17.7C152.471 17.084 153.778 16.776 155.234 16.776C156.839 16.776 158.127 17.1027 159.098 17.756C160.087 18.3907 160.806 19.2587 161.254 20.36C161.702 21.4613 161.926 22.6933 161.926 24.056C161.926 24.8773 161.795 25.7173 161.534 26.576C161.273 27.416 160.871 28.2 160.33 28.928C159.789 29.6373 159.079 30.216 158.202 30.664C157.325 31.0933 156.27 31.308 155.038 31.308ZM156.214 28.508C157.315 28.508 158.267 28.3213 159.07 27.948C159.873 27.5747 160.489 27.052 160.918 26.38C161.347 25.708 161.562 24.9333 161.562 24.056C161.562 23.104 161.338 22.3013 160.89 21.648C160.461 20.976 159.845 20.472 159.042 20.136C158.258 19.7813 157.315 19.604 156.214 19.604C154.665 19.604 153.461 20.0147 152.602 20.836C151.743 21.6387 151.314 22.712 151.314 24.056C151.314 24.952 151.519 25.736 151.93 26.408C152.341 27.0613 152.91 27.5747 153.638 27.948C154.385 28.3213 155.243 28.508 156.214 28.508ZM161.562 17.084H165.202V31H161.814C161.814 31 161.786 30.8227 161.73 30.468C161.693 30.0947 161.655 29.628 161.618 29.068C161.581 28.508 161.562 27.9573 161.562 27.416V17.084ZM167.516 17.084H178.324V19.912H167.516V17.084ZM171.1 13.276H174.74V31H171.1V13.276ZM193.13 26.38H196.658C196.508 27.332 196.107 28.1813 195.454 28.928C194.819 29.6747 193.951 30.2627 192.85 30.692C191.748 31.1213 190.404 31.336 188.818 31.336C187.044 31.336 185.476 31.056 184.114 30.496C182.751 29.9173 181.687 29.0867 180.922 28.004C180.156 26.9213 179.774 25.6147 179.774 24.084C179.774 22.5533 180.147 21.2467 180.894 20.164C181.64 19.0627 182.676 18.2227 184.002 17.644C185.346 17.0653 186.914 16.776 188.706 16.776C190.535 16.776 192.056 17.0653 193.27 17.644C194.483 18.2227 195.379 19.1 195.958 20.276C196.555 21.4333 196.807 22.9173 196.714 24.728H183.442C183.535 25.4373 183.796 26.0813 184.226 26.66C184.674 27.2387 185.271 27.696 186.018 28.032C186.783 28.368 187.688 28.536 188.734 28.536C189.891 28.536 190.852 28.34 191.618 27.948C192.402 27.5373 192.906 27.0147 193.13 26.38ZM188.538 19.548C187.194 19.548 186.102 19.8467 185.262 20.444C184.422 21.0227 183.88 21.7413 183.638 22.6H193.102C193.008 21.6667 192.56 20.9293 191.758 20.388C190.974 19.828 189.9 19.548 188.538 19.548Z" fill="white"/>
<circle cx="22" cy="22" r="22" fill="#FF9900"/>
<path d="M12 32H32" stroke="#0F121C" stroke-width="1.5" stroke-linecap="round"/>
<path d="M28 19H24C21.518 19 21 19.518 21 22V32H31V22C31 19.518 30.482 19 28 19Z" stroke="#0F121C" stroke-width="1.5" stroke-linejoin="round"/>
<path d="M25 32H13V15C13 12.518 13.518 12 16 12H22C24.482 12 25 12.518 25 15V19" stroke="#0F121C" stroke-width="1.5" stroke-linejoin="round"/>
<path d="M13 16H16M13 20H16M13 24H16" stroke="#0F121C" stroke-width="1.5" stroke-linecap="round"/>
<path d="M25 23H27M25 26H27" stroke="#0F121C" stroke-width="1.5" stroke-linecap="round"/>
<path d="M26 32L26 29" stroke="#0F121C" stroke-width="1.5" stroke-linecap="round" stroke-linejoin="round"/>
</svg>
