<svg width="18" height="18" viewBox="0 0 18 18" fill="none" xmlns="http://www.w3.org/2000/svg">
<path d="M17.6293 8.86144L9.49211 0.730172C9.43352 0.671468 9.36393 0.624894 9.28732 0.593117C9.21071 0.56134 9.12858 0.544983 9.04564 0.544983C8.9627 0.544983 8.88057 0.56134 8.80396 0.593117C8.72735 0.624894 8.65776 0.671468 8.59917 0.730172L0.461975 8.86144C0.224912 9.0985 0.0905762 9.42052 0.0905762 9.75635C0.0905762 10.4537 0.657552 11.0207 1.35491 11.0207H2.21229V16.8228C2.21229 17.1725 2.49479 17.455 2.84446 17.455H7.7813V13.0298H9.99389V17.455H15.2468C15.5965 17.455 15.879 17.1725 15.879 16.8228V11.0207H16.7364C17.0722 11.0207 17.3942 10.8883 17.6313 10.6493C18.1232 10.1554 18.1232 9.35532 17.6293 8.86144Z" fill="black"/>
</svg>
