<svg width="20" height="20" viewBox="0 0 20 20" fill="none" xmlns="http://www.w3.org/2000/svg">
<path d="M14.426 0.245117H6.16678C4.77332 0.246695 3.43738 0.800946 2.45205 1.78628C1.46672 2.7716 0.912467 4.10754 0.910889 5.50101V13.7603C0.912467 15.1537 1.46672 16.4897 2.45205 17.475C3.43738 18.4603 4.77332 19.0146 6.16678 19.0162H14.426C15.8195 19.0146 17.1554 18.4603 18.1408 17.475C19.1261 16.4897 19.6804 15.1537 19.6819 13.7603V5.50101C19.6804 4.10754 19.1261 2.7716 18.1408 1.78628C17.1554 0.800946 15.8195 0.246695 14.426 0.245117V0.245117ZM10.2964 14.1357C9.40539 14.1357 8.53439 13.8715 7.79354 13.3765C7.05269 12.8814 6.47526 12.1778 6.13429 11.3546C5.79331 10.5315 5.70409 9.62564 5.87792 8.75175C6.05175 7.87785 6.48082 7.07513 7.11086 6.44509C7.7409 5.81504 8.54362 5.38598 9.41752 5.21215C10.2914 5.03832 11.1972 5.12754 12.0204 5.46851C12.8436 5.80949 13.5472 6.38691 14.0422 7.12777C14.5372 7.86862 14.8015 8.73962 14.8015 9.63064C14.8001 10.825 14.325 11.9701 13.4805 12.8147C12.6359 13.6593 11.4908 14.1343 10.2964 14.1357V14.1357ZM15.1769 5.87643C14.9541 5.87643 14.7364 5.81038 14.5512 5.68662C14.3659 5.56287 14.2216 5.38697 14.1364 5.18117C14.0511 4.97537 14.0288 4.74892 14.0723 4.53044C14.1157 4.31197 14.223 4.11129 14.3805 3.95378C14.538 3.79627 14.7387 3.689 14.9572 3.64555C15.1756 3.60209 15.4021 3.62439 15.6079 3.70964C15.8137 3.79488 15.9896 3.93924 16.1133 4.12445C16.2371 4.30966 16.3031 4.52741 16.3031 4.75017C16.3031 5.04887 16.1845 5.33534 15.9733 5.54656C15.7621 5.75777 15.4756 5.87643 15.1769 5.87643Z" fill="#2C3C4D"/>
</svg>
