<svg width="20" height="20" viewBox="0 0 20 20" fill="none" xmlns="http://www.w3.org/2000/svg">
<path d="M18.243 0.244873H2.47532C2.07718 0.245324 1.69549 0.403682 1.41396 0.685205C1.13244 0.966727 0.974084 1.34842 0.973633 1.74656V17.5142C0.974088 17.9124 1.13245 18.2941 1.41397 18.5756C1.69549 18.8571 2.07718 19.0155 2.47532 19.0159H18.243C18.6411 19.0155 19.0228 18.8571 19.3043 18.5756C19.5859 18.2941 19.7442 17.9124 19.7447 17.5142V1.74656C19.7442 1.34842 19.5859 0.966727 19.3043 0.685205C19.0228 0.403682 18.6411 0.245324 18.243 0.244873V0.244873ZM7.35579 14.1355C7.35579 14.3347 7.27668 14.5257 7.13587 14.6665C6.99506 14.8073 6.80408 14.8864 6.60495 14.8864C6.40581 14.8864 6.21483 14.8073 6.07402 14.6665C5.93321 14.5257 5.8541 14.3347 5.8541 14.1355V8.1288C5.8541 7.92967 5.93321 7.73869 6.07402 7.59788C6.21483 7.45707 6.40581 7.37796 6.60495 7.37796C6.80408 7.37796 6.99506 7.45707 7.13587 7.59788C7.27668 7.73869 7.35579 7.92967 7.35579 8.1288V14.1355ZM6.60495 6.25161C6.38219 6.25161 6.16444 6.18555 5.97923 6.0618C5.79401 5.93804 5.64966 5.76214 5.56441 5.55635C5.47917 5.35055 5.45687 5.12409 5.50032 4.90562C5.54378 4.68715 5.65105 4.48647 5.80856 4.32896C5.96607 4.17145 6.16675 4.06418 6.38522 4.02072C6.6037 3.97727 6.83015 3.99957 7.03595 4.08481C7.24174 4.17006 7.41764 4.31441 7.5414 4.49963C7.66515 4.68484 7.73121 4.90259 7.73121 5.12534C7.73121 5.42405 7.61255 5.71052 7.40133 5.92173C7.19012 6.13295 6.90365 6.25161 6.60495 6.25161V6.25161ZM15.615 14.1355C15.615 14.3347 15.5359 14.5257 15.3951 14.6665C15.2543 14.8073 15.0633 14.8864 14.8642 14.8864C14.6651 14.8864 14.4741 14.8073 14.3333 14.6665C14.1925 14.5257 14.1134 14.3347 14.1134 14.1355V10.7568C14.1134 10.2589 13.9156 9.78146 13.5636 9.42944C13.2115 9.07741 12.7341 8.87965 12.2363 8.87965C11.7384 8.87965 11.261 9.07741 10.9089 9.42944C10.5569 9.78146 10.3592 10.2589 10.3592 10.7568V14.1355C10.3592 14.3347 10.28 14.5257 10.1392 14.6665C9.99843 14.8073 9.80745 14.8864 9.60831 14.8864C9.40918 14.8864 9.2182 14.8073 9.07739 14.6665C8.93658 14.5257 8.85747 14.3347 8.85747 14.1355V8.1288C8.85741 7.94424 8.92535 7.76611 9.04832 7.62847C9.17129 7.49083 9.34066 7.40333 9.52407 7.38267C9.70748 7.36202 9.89207 7.40967 10.0426 7.51652C10.1931 7.62336 10.2989 7.78191 10.3399 7.96188C10.8477 7.6168 11.4399 7.41668 12.0529 7.38304C12.666 7.34939 13.2765 7.48349 13.819 7.77092C14.3615 8.05834 14.8154 8.48822 15.1319 9.01431C15.4483 9.54041 15.6154 10.1428 15.615 10.7568V14.1355Z" fill="#2C3C4D"/>
</svg>
