<svg width="18" height="22" viewBox="0 0 18 22" fill="none" xmlns="http://www.w3.org/2000/svg">
<path d="M9.1999 11.975C10.8153 11.975 12.1249 10.6654 12.1249 9.05C12.1249 7.43457 10.8153 6.125 9.1999 6.125C7.58447 6.125 6.2749 7.43457 6.2749 9.05C6.2749 10.6654 7.58447 11.975 9.1999 11.975Z" stroke="black" stroke-width="1.75" stroke-linecap="round" stroke-linejoin="round"/>
<path d="M9.1999 1.25C7.13121 1.25 5.14725 2.07178 3.68447 3.53457C2.22169 4.99735 1.3999 6.98131 1.3999 9.05C1.3999 10.8947 1.79185 12.1018 2.8624 13.4375L9.1999 20.75L15.5374 13.4375C16.608 12.1018 16.9999 10.8947 16.9999 9.05C16.9999 6.98131 16.1781 4.99735 14.7153 3.53457C13.2526 2.07178 11.2686 1.25 9.1999 1.25V1.25Z" stroke="black" stroke-width="1.75" stroke-linecap="round" stroke-linejoin="round"/>
</svg>
