<svg width="17" height="21" viewBox="0 0 17 21" fill="none" xmlns="http://www.w3.org/2000/svg">
<path d="M8.64985 10.7248C9.75108 10.7248 10.6521 9.82374 10.6521 8.72251C10.6521 7.62127 9.75108 6.72026 8.64985 6.72026C7.54861 6.72026 6.6476 7.62127 6.6476 8.72251C6.6476 9.82374 7.54861 10.7248 8.64985 10.7248ZM8.64985 0.713531C12.8546 0.713531 16.6588 3.93714 16.6588 8.92273C16.6588 12.1063 14.2061 15.8505 9.31059 20.1653C8.93016 20.4957 8.35952 20.4957 7.9791 20.1653C3.09362 15.8505 0.640869 12.1063 0.640869 8.92273C0.640869 3.93714 4.44513 0.713531 8.64985 0.713531Z" fill="#222430"/>
</svg>
