<svg width="17" height="21" viewBox="0 0 17 21" fill="none" xmlns="http://www.w3.org/2000/svg">
<path d="M8.2436 10.7248C9.34483 10.7248 10.2458 9.8238 10.2458 8.72257C10.2458 7.62134 9.34483 6.72033 8.2436 6.72033C7.14236 6.72033 6.24135 7.62134 6.24135 8.72257C6.24135 9.8238 7.14236 10.7248 8.2436 10.7248ZM8.2436 0.713593C12.4483 0.713593 16.2526 3.93721 16.2526 8.92279C16.2526 12.1064 13.7998 15.8506 8.90434 20.1654C8.52391 20.4958 7.95327 20.4958 7.57285 20.1654C2.68737 15.8506 0.234619 12.1064 0.234619 8.92279C0.234619 3.93721 4.03888 0.713593 8.2436 0.713593Z" fill="#FF9900"/>
</svg>
