<svg width="198" height="45" viewBox="0 0 198 45" fill="none" xmlns="http://www.w3.org/2000/svg">
<path d="M64.5478 32.3315C62.8678 32.3315 61.3465 32.1355 59.9838 31.7435C58.6398 31.3515 57.4732 30.7635 56.4838 29.9795C55.5132 29.1955 54.7665 28.2249 54.2438 27.0675C53.7212 25.9102 53.4598 24.5755 53.4598 23.0635C53.4598 21.5329 53.7305 20.1795 54.2718 19.0035C54.8318 17.8089 55.6158 16.8009 56.6238 15.9795C57.6505 15.1582 58.8638 14.5422 60.2638 14.1315C61.6825 13.7022 63.2505 13.4875 64.9678 13.4875C67.0025 13.4875 68.7572 13.7769 70.2318 14.3555C71.7065 14.9155 72.8638 15.7089 73.7038 16.7355C74.5625 17.7622 75.0478 18.9849 75.1598 20.4035H71.5758C71.3332 19.6569 70.9318 19.0129 70.3718 18.4715C69.8305 17.9115 69.1118 17.4822 68.2158 17.1835C67.3198 16.8662 66.2372 16.7075 64.9678 16.7075C63.3438 16.7075 61.9532 16.9689 60.7958 17.4915C59.6572 18.0142 58.7892 18.7515 58.1918 19.7035C57.5945 20.6555 57.2958 21.7755 57.2958 23.0635C57.2958 24.3142 57.5572 25.3969 58.0798 26.3115C58.6025 27.2075 59.4052 27.8982 60.4878 28.3835C61.5892 28.8689 62.9892 29.1115 64.6878 29.1115C65.9945 29.1115 67.1425 28.9435 68.1318 28.6075C69.1398 28.2529 69.9798 27.7862 70.6518 27.2075C71.3238 26.6102 71.7998 25.9475 72.0798 25.2195L73.5358 24.6875C73.2932 27.0955 72.3785 28.9715 70.7918 30.3155C69.2238 31.6595 67.1425 32.3315 64.5478 32.3315ZM72.5838 31.9675C72.5838 31.3889 72.6212 30.7262 72.6958 29.9795C72.7705 29.2142 72.8638 28.4489 72.9758 27.6835C73.0878 26.8995 73.1905 26.1809 73.2838 25.5275H64.9958V23.1475H75.8038V31.9675H72.5838ZM87.4536 32.3035C85.6989 32.3035 84.1496 32.0235 82.8056 31.4635C81.4802 30.9035 80.4442 30.0915 79.6976 29.0275C78.9509 27.9449 78.5776 26.6195 78.5776 25.0515C78.5776 23.4835 78.9509 22.1582 79.6976 21.0755C80.4442 19.9742 81.4802 19.1435 82.8056 18.5835C84.1496 18.0235 85.6989 17.7435 87.4536 17.7435C89.2082 17.7435 90.7389 18.0235 92.0456 18.5835C93.3709 19.1435 94.4069 19.9742 95.1536 21.0755C95.9002 22.1582 96.2736 23.4835 96.2736 25.0515C96.2736 26.6195 95.9002 27.9449 95.1536 29.0275C94.4069 30.0915 93.3709 30.9035 92.0456 31.4635C90.7389 32.0235 89.2082 32.3035 87.4536 32.3035ZM87.4536 29.5035C88.4242 29.5035 89.2922 29.3355 90.0576 28.9995C90.8416 28.6449 91.4576 28.1409 91.9056 27.4875C92.3536 26.8155 92.5776 26.0035 92.5776 25.0515C92.5776 24.0995 92.3536 23.2875 91.9056 22.6155C91.4576 21.9249 90.8509 21.4022 90.0856 21.0475C89.3202 20.6929 88.4429 20.5155 87.4536 20.5155C86.4829 20.5155 85.6056 20.6929 84.8216 21.0475C84.0376 21.4022 83.4122 21.9155 82.9456 22.5875C82.4976 23.2595 82.2736 24.0809 82.2736 25.0515C82.2736 26.0035 82.4976 26.8155 82.9456 27.4875C83.3936 28.1409 84.0096 28.6449 84.7936 28.9995C85.5776 29.3355 86.4642 29.5035 87.4536 29.5035ZM103.164 24.4075V28.8595H117.136V31.9675H99.4404V13.8515H117.108V16.9595H103.164V21.4675H114.588V24.4075H103.164ZM119.924 27.3475H123.284C123.489 27.9822 123.909 28.5049 124.544 28.9155C125.197 29.3075 126.047 29.5035 127.092 29.5035C127.801 29.5035 128.352 29.4382 128.744 29.3075C129.136 29.1769 129.407 28.9902 129.556 28.7475C129.705 28.4862 129.78 28.1969 129.78 27.8795C129.78 27.4875 129.659 27.1889 129.416 26.9835C129.173 26.7595 128.8 26.5822 128.296 26.4515C127.792 26.3209 127.148 26.1995 126.364 26.0875C125.58 25.9569 124.824 25.7982 124.096 25.6115C123.368 25.4249 122.724 25.1822 122.164 24.8835C121.604 24.5662 121.156 24.1742 120.82 23.7075C120.503 23.2222 120.344 22.6342 120.344 21.9435C120.344 21.2715 120.503 20.6742 120.82 20.1515C121.156 19.6289 121.613 19.1902 122.192 18.8355C122.789 18.4809 123.48 18.2102 124.264 18.0235C125.067 17.8369 125.925 17.7435 126.84 17.7435C128.221 17.7435 129.369 17.9489 130.284 18.3595C131.199 18.7515 131.88 19.3115 132.328 20.0395C132.795 20.7489 133.028 21.5702 133.028 22.5035H129.808C129.659 21.8129 129.36 21.3182 128.912 21.0195C128.464 20.7022 127.773 20.5435 126.84 20.5435C125.925 20.5435 125.235 20.6835 124.768 20.9635C124.301 21.2435 124.068 21.6262 124.068 22.1115C124.068 22.5035 124.208 22.8115 124.488 23.0355C124.787 23.2409 125.216 23.4089 125.776 23.5395C126.355 23.6702 127.073 23.8102 127.932 23.9595C128.66 24.1089 129.351 24.2769 130.004 24.4635C130.676 24.6502 131.273 24.8929 131.796 25.1915C132.319 25.4715 132.729 25.8542 133.028 26.3395C133.345 26.8062 133.504 27.4035 133.504 28.1315C133.504 29.0275 133.243 29.7835 132.72 30.3995C132.216 31.0155 131.488 31.4915 130.536 31.8275C129.584 32.1449 128.445 32.3035 127.12 32.3035C125.944 32.3035 124.927 32.1822 124.068 31.9395C123.228 31.6782 122.528 31.3515 121.968 30.9595C121.408 30.5489 120.969 30.1195 120.652 29.6715C120.353 29.2049 120.148 28.7662 120.036 28.3555C119.924 27.9449 119.887 27.6089 119.924 27.3475ZM135.309 18.0515H146.117V20.8795H135.309V18.0515ZM138.893 14.2435H142.533V31.9675H138.893V14.2435ZM155.014 32.2755C153.633 32.2755 152.373 31.9769 151.234 31.3795C150.114 30.7635 149.218 29.9142 148.546 28.8315C147.893 27.7302 147.566 26.4609 147.566 25.0235C147.566 23.5489 147.902 22.2702 148.574 21.1875C149.246 20.1049 150.151 19.2649 151.29 18.6675C152.447 18.0515 153.754 17.7435 155.21 17.7435C156.815 17.7435 158.103 18.0702 159.074 18.7235C160.063 19.3582 160.782 20.2262 161.23 21.3275C161.678 22.4289 161.902 23.6609 161.902 25.0235C161.902 25.8449 161.771 26.6849 161.51 27.5435C161.249 28.3835 160.847 29.1675 160.306 29.8955C159.765 30.6049 159.055 31.1835 158.178 31.6315C157.301 32.0609 156.246 32.2755 155.014 32.2755ZM156.19 29.4755C157.291 29.4755 158.243 29.2889 159.046 28.9155C159.849 28.5422 160.465 28.0195 160.894 27.3475C161.323 26.6755 161.538 25.9009 161.538 25.0235C161.538 24.0715 161.314 23.2689 160.866 22.6155C160.437 21.9435 159.821 21.4395 159.018 21.1035C158.234 20.7489 157.291 20.5715 156.19 20.5715C154.641 20.5715 153.437 20.9822 152.578 21.8035C151.719 22.6062 151.29 23.6795 151.29 25.0235C151.29 25.9195 151.495 26.7035 151.906 27.3755C152.317 28.0289 152.886 28.5422 153.614 28.9155C154.361 29.2889 155.219 29.4755 156.19 29.4755ZM161.538 18.0515H165.178V31.9675H161.79C161.79 31.9675 161.762 31.7902 161.706 31.4355C161.669 31.0622 161.631 30.5955 161.594 30.0355C161.557 29.4755 161.538 28.9249 161.538 28.3835V18.0515ZM167.492 18.0515H178.3V20.8795H167.492V18.0515ZM171.076 14.2435H174.716V31.9675H171.076V14.2435ZM193.105 27.3475H196.633C196.484 28.2995 196.083 29.1489 195.429 29.8955C194.795 30.6422 193.927 31.2302 192.825 31.6595C191.724 32.0889 190.38 32.3035 188.793 32.3035C187.02 32.3035 185.452 32.0235 184.089 31.4635C182.727 30.8849 181.663 30.0542 180.897 28.9715C180.132 27.8889 179.749 26.5822 179.749 25.0515C179.749 23.5209 180.123 22.2142 180.869 21.1315C181.616 20.0302 182.652 19.1902 183.977 18.6115C185.321 18.0329 186.889 17.7435 188.681 17.7435C190.511 17.7435 192.032 18.0329 193.245 18.6115C194.459 19.1902 195.355 20.0675 195.933 21.2435C196.531 22.4009 196.783 23.8849 196.689 25.6955H183.417C183.511 26.4049 183.772 27.0489 184.201 27.6275C184.649 28.2062 185.247 28.6635 185.993 28.9995C186.759 29.3355 187.664 29.5035 188.709 29.5035C189.867 29.5035 190.828 29.3075 191.593 28.9155C192.377 28.5049 192.881 27.9822 193.105 27.3475ZM188.513 20.5155C187.169 20.5155 186.077 20.8142 185.237 21.4115C184.397 21.9902 183.856 22.7089 183.613 23.5675H193.077C192.984 22.6342 192.536 21.8969 191.733 21.3555C190.949 20.7955 189.876 20.5155 188.513 20.5155Z" fill="black"/>
<ellipse cx="21.9982" cy="22.944" rx="21.9982" ry="21.9753" fill="#FF9900"/>
<path d="M11.9788 32.9327H31.9772" stroke="black" stroke-width="1.5" stroke-linecap="round"/>
<path d="M27.9775 19.9473H23.9778C21.496 19.9473 20.978 20.4647 20.978 22.9439V32.9327H30.9772V22.9439C30.9772 20.4647 30.4593 19.9473 27.9775 19.9473Z" stroke="black" stroke-width="1.5" stroke-linejoin="round"/>
<path d="M24.9778 32.9328H12.9788V15.9518C12.9788 13.4726 13.4967 12.9552 15.9785 12.9552H21.978C24.4598 12.9552 24.9778 13.4726 24.9778 15.9518V19.9474" stroke="black" stroke-width="1.5" stroke-linejoin="round"/>
<path d="M12.9788 16.9507H15.9785M12.9788 20.9462H15.9785M12.9788 24.9417H15.9785" stroke="black" stroke-width="1.5" stroke-linecap="round"/>
<path d="M24.9778 23.9429H26.9776M24.9778 26.9395H26.9776" stroke="black" stroke-width="1.5" stroke-linecap="round"/>
<path d="M25.9775 32.9328L25.9775 29.9362" stroke="black" stroke-width="1.5" stroke-linecap="round" stroke-linejoin="round"/>
</svg>
