<svg width="20" height="20" viewBox="0 0 20 20" fill="none" xmlns="http://www.w3.org/2000/svg">
<path fill-rule="evenodd" clip-rule="evenodd" d="M9.69076 0.463867C10.3348 0.463867 10.8569 0.985956 10.8569 1.62999V8.6267H17.8536C18.4976 8.6267 19.0197 9.14878 19.0197 9.79281C19.0197 10.4368 18.4976 10.9589 17.8536 10.9589H10.8569V17.9556C10.8569 18.5997 10.3348 19.1218 9.69076 19.1218C9.04673 19.1218 8.52465 18.5997 8.52465 17.9556V10.9589H1.52793C0.883905 10.9589 0.361816 10.4368 0.361816 9.79281C0.361816 9.14878 0.883905 8.6267 1.52793 8.6267H8.52465V1.62999C8.52465 0.985956 9.04673 0.463867 9.69076 0.463867Z" fill="#111827"/>
</svg>
