<svg width="21" height="21" viewBox="0 0 21 21" fill="none" xmlns="http://www.w3.org/2000/svg">
<path d="M20.183 6.50087V10.2551C20.183 10.3537 20.1636 10.4513 20.1259 10.5424C20.0881 10.6335 20.0328 10.7163 19.9631 10.786C19.8934 10.8557 19.8106 10.911 19.7195 10.9488C19.6284 10.9865 19.5308 11.0059 19.4322 11.0059C17.8637 11.0094 16.3178 10.6323 14.9271 9.90711L14.9271 13.2584C14.9269 14.6154 14.5397 15.9441 13.8108 17.0887C13.082 18.2332 12.0418 19.1462 10.8124 19.7203C9.5829 20.2945 8.21518 20.5061 6.86969 20.3302C5.52421 20.1544 4.25681 19.5984 3.21621 18.7275C2.17562 17.8566 1.40501 16.707 0.994833 15.4136C0.584654 14.1201 0.55192 12.7365 0.900472 11.4251C1.24902 10.1137 1.9644 8.92897 2.96265 8.00987C3.96089 7.09077 5.20059 6.47546 6.53625 6.23617C6.6443 6.21693 6.75525 6.2216 6.86129 6.24987C6.96734 6.27814 7.0659 6.32931 7.15003 6.39979C7.23416 6.47026 7.30182 6.55832 7.34824 6.65777C7.39466 6.75721 7.41871 6.86563 7.41871 6.97538L7.41866 10.8834C7.41867 11.0254 7.3784 11.1645 7.30253 11.2846C7.22666 11.4046 7.11831 11.5007 6.99004 11.5616C6.6864 11.7055 6.42694 11.9282 6.23872 12.2065C6.05051 12.4849 5.94043 12.8086 5.91999 13.144C5.89955 13.4793 5.96949 13.8141 6.1225 14.1132C6.27552 14.4123 6.50601 14.6649 6.78993 14.8446C7.07384 15.0242 7.40077 15.1244 7.73661 15.1347C8.07245 15.1449 8.40488 15.0649 8.69922 14.9028C8.99356 14.7408 9.23903 14.5027 9.41 14.2135C9.58097 13.9243 9.67119 13.5944 9.67123 13.2584V1.24498C9.67123 1.14638 9.69065 1.04874 9.72838 0.957644C9.76611 0.866547 9.82142 0.783773 9.89114 0.714051C9.96087 0.644328 10.0436 0.589022 10.1347 0.551289C10.2258 0.513557 10.3235 0.494138 10.4221 0.494141H14.1763C14.2749 0.494138 14.3725 0.513557 14.4636 0.551289C14.5547 0.589022 14.6375 0.644328 14.7072 0.714051C14.7769 0.783773 14.8322 0.866547 14.87 0.957644C14.9077 1.04874 14.9271 1.14638 14.9271 1.24498C14.9285 2.43938 15.4035 3.58447 16.2481 4.42904C17.0927 5.27361 18.2378 5.74868 19.4322 5.75003C19.5308 5.75003 19.6284 5.76945 19.7195 5.80718C19.8106 5.84491 19.8934 5.90022 19.9631 5.96994C20.0328 6.03966 20.0881 6.12244 20.1259 6.21354C20.1636 6.30463 20.183 6.40227 20.183 6.50087V6.50087Z" fill="#2C3C4D"/>
</svg>
