<svg width="21" height="19" viewBox="0 0 21 19" fill="none" xmlns="http://www.w3.org/2000/svg">
<path d="M20.5276 3.90538L17.6966 6.73648C17.1314 13.2952 11.6002 18.3913 4.97985 18.3913C3.61666 18.3913 2.49324 18.1752 1.64071 17.7489C0.952697 17.4049 0.670856 17.0357 0.600923 16.9307C0.538183 16.8366 0.497514 16.7295 0.481954 16.6175C0.466394 16.5054 0.476345 16.3913 0.511063 16.2837C0.545781 16.1761 0.60437 16.0777 0.682453 15.9958C0.760537 15.914 0.856098 15.8509 0.962 15.8112C0.98615 15.802 3.20027 14.9517 4.63129 13.3326C3.74119 12.6987 2.95779 11.9271 2.31057 11.0467C1.024 9.30068 -0.336708 6.26844 0.486903 1.73846C0.511418 1.60365 0.572355 1.47811 0.663114 1.37545C0.753873 1.2728 0.870993 1.19693 1.00179 1.15608C1.13258 1.11523 1.27206 1.11094 1.40511 1.14369C1.53816 1.17644 1.65972 1.24497 1.75661 1.34187C1.78969 1.37486 4.91409 4.45513 8.73356 5.4501L8.73406 4.87578C8.74215 3.67362 9.22724 2.52386 10.0827 1.67922C10.9382 0.834582 12.094 0.364183 13.2962 0.37142C14.0772 0.382235 14.842 0.595426 15.5159 0.990167C16.1899 1.38491 16.7499 1.9477 17.1413 2.62358L19.9967 2.62362C20.1452 2.62362 20.2904 2.66766 20.4138 2.75016C20.5373 2.83266 20.6335 2.94992 20.6904 3.08712C20.7472 3.22431 20.7621 3.37528 20.7331 3.52093C20.7042 3.66658 20.6326 3.80037 20.5276 3.90538Z" fill="#2C3C4D"/>
</svg>
